<svg width="398" height="288" viewBox="0 0 398 288" fill="none" xmlns="http://www.w3.org/2000/svg">
<g clip-path="url(#clip0_189_36)">
<path d="M340.551 247.597V248.34C340.55 249.572 340.06 250.752 339.19 251.623C338.319 252.494 337.139 252.984 335.908 252.985H296.53C295.299 252.984 294.118 252.495 293.247 251.624C292.377 250.753 291.887 249.572 291.887 248.34V247.597C291.885 246.51 292.266 245.457 292.964 244.624C293.197 244.348 293.46 244.098 293.748 243.881H314.172C314.418 243.881 314.655 243.783 314.829 243.609C315.003 243.434 315.101 243.198 315.101 242.952H335.908C337.139 242.954 338.319 243.444 339.189 244.314C340.06 245.185 340.549 246.365 340.551 247.597Z" fill="#3F3D56"/>
<path d="M318.818 286.987H313.988V252.8H318.818V286.987Z" fill="#3F3D56"/>
<path d="M332.562 286.817C332.562 287.339 325.245 287.019 316.217 287.019C307.19 287.019 299.872 287.339 299.872 286.817C299.872 286.295 307.19 282.156 316.217 282.156C325.245 282.156 332.562 286.295 332.562 286.817Z" fill="#3F3D56"/>
<path d="M332.973 246.813L316.494 249.444L297.348 252.502L290.709 253.561C290.072 253.661 289.421 253.505 288.899 253.126C288.376 252.747 288.026 252.177 287.923 251.539L287.622 249.659L287.344 247.909L287.114 246.467C287.061 246.145 287.075 245.815 287.155 245.498C287.234 245.181 287.376 244.884 287.574 244.624C287.808 244.304 288.118 244.049 288.477 243.881H314.172C314.419 243.881 314.655 243.783 314.829 243.609C315.003 243.434 315.101 243.198 315.101 242.952V242.22C315.101 241.973 315.003 241.737 314.829 241.563C314.655 241.389 314.419 241.291 314.172 241.291H304.075L308.73 240.548L323.04 238.262L331.394 236.928C332.033 236.827 332.686 236.983 333.209 237.363C333.733 237.743 334.085 238.315 334.188 238.953L334.997 244.022C335.096 244.66 334.939 245.312 334.56 245.834C334.181 246.357 333.61 246.709 332.973 246.813Z" fill="#6C63FF"/>
<path d="M297.348 246.107V274.426C297.347 275.071 297.09 275.69 296.634 276.146C296.178 276.602 295.56 276.859 294.915 276.86H289.777C289.132 276.859 288.514 276.602 288.058 276.146C287.601 275.69 287.345 275.071 287.344 274.426V246.107C287.343 245.569 287.522 245.047 287.853 244.624C288.098 244.299 288.423 244.043 288.796 243.881H295.899C296.271 244.044 296.595 244.3 296.839 244.624C297.169 245.048 297.348 245.57 297.348 246.107Z" fill="#6C63FF"/>
<path d="M312.831 198.175C312.805 198.427 312.74 198.674 312.638 198.907C312.483 199.262 312.245 199.574 311.943 199.817L311.932 199.825L297.273 211.719L297.058 211.89L294.023 214.354L293.105 215.097H277.232L278.146 214.354L290.691 204.172L299.097 197.35L305.639 192.043C306.022 191.731 306.491 191.545 306.984 191.508C306.986 191.506 306.989 191.505 306.991 191.505C307.137 191.494 307.284 191.497 307.43 191.512C307.648 191.534 307.862 191.587 308.065 191.668C308.204 191.719 308.336 191.786 308.459 191.869C308.69 192.01 308.895 192.189 309.064 192.4L312.252 196.328L312.3 196.391C312.502 196.639 312.653 196.924 312.744 197.23C312.835 197.536 312.865 197.857 312.831 198.175Z" fill="#6C63FF"/>
<path d="M311.932 199.825C311.656 200.516 311.254 201.149 310.747 201.694L300.988 212.18C300.752 212.397 300.476 212.565 300.175 212.674C299.874 212.784 299.555 212.833 299.235 212.819C298.915 212.805 298.601 212.728 298.311 212.592C298.021 212.456 297.761 212.264 297.545 212.028L297.273 211.719L297.155 211.586L292.938 206.855L291.125 204.819C291.005 204.693 290.9 204.554 290.814 204.403C290.769 204.328 290.728 204.25 290.691 204.172C290.539 203.825 290.469 203.447 290.487 203.069C290.499 202.746 290.576 202.43 290.713 202.138C290.85 201.847 291.045 201.585 291.285 201.37L302.601 192.72C303.849 191.762 305.421 191.328 306.984 191.508C306.986 191.506 306.989 191.505 306.991 191.505C307.339 191.548 307.682 191.62 308.017 191.72C308.165 191.761 308.31 191.813 308.459 191.869C309.418 192.23 310.269 192.831 310.929 193.615C311.648 194.46 312.121 195.485 312.298 196.58C312.475 197.675 312.348 198.797 311.932 199.825L311.932 199.825Z" fill="#2F2E41"/>
<path d="M316.566 182.872C306.283 182.872 297.946 174.534 297.946 164.247C297.946 153.961 306.283 145.622 316.566 145.622C326.849 145.622 335.185 153.961 335.185 164.247C335.185 174.534 326.849 182.872 316.566 182.872Z" fill="#6C63FF"/>
<path d="M321.524 244.245L314.618 245.345L314.462 245.371L303.964 247.047L297.348 248.106L287.622 249.659L287.344 249.704L285.899 249.934L279.26 250.993C278.623 251.094 277.972 250.937 277.45 250.558C276.927 250.179 276.577 249.609 276.474 248.972L275.895 245.345L275.664 243.903C275.664 243.896 275.661 243.888 275.661 243.881H314.172C314.419 243.881 314.655 243.783 314.829 243.609C315.003 243.434 315.101 243.198 315.101 242.952V242.22C315.101 241.973 315.003 241.737 314.829 241.563C314.655 241.389 314.419 241.291 314.172 241.291H302.003V237.229L302.746 237.11L306.416 236.523L319.949 234.364C320.587 234.263 321.239 234.419 321.762 234.798C322.285 235.177 322.636 235.748 322.739 236.386L323.04 238.262L323.549 241.458C323.648 242.096 323.491 242.747 323.112 243.27C322.732 243.792 322.161 244.143 321.524 244.245Z" fill="#6C63FF"/>
<path d="M341.907 227.791C341.907 242.974 340.365 252.056 316.591 249.455C316.557 249.451 316.527 249.447 316.494 249.444C312.254 249.025 308.06 248.222 303.964 247.047C301.835 246.425 299.767 245.614 297.782 244.624C297.315 244.386 296.865 244.137 296.423 243.881H314.172C314.419 243.881 314.655 243.783 314.829 243.609C315.003 243.435 315.101 243.198 315.101 242.952V242.22C315.101 241.974 315.003 241.737 314.829 241.563C314.655 241.389 314.419 241.291 314.172 241.291H302.003V217.821C302.002 217.099 301.714 216.407 301.204 215.896C300.694 215.386 300.002 215.098 299.28 215.097H289.38C289.465 214.852 289.55 214.603 289.643 214.354C290.572 211.783 291.673 209.278 292.938 206.855C294.672 203.491 296.735 200.307 299.098 197.35C300.743 195.289 302.589 193.399 304.61 191.705C308.336 188.629 312.393 186.726 316.509 186.726C331.688 186.726 341.907 212.608 341.907 227.791Z" fill="#2F2E41"/>
<path d="M316.957 171.15L316.977 170.454C315.682 170.418 314.541 170.337 313.683 169.71C313.44 169.523 313.24 169.285 313.097 169.013C312.955 168.741 312.872 168.441 312.855 168.134C312.84 167.947 312.868 167.759 312.938 167.584C313.007 167.409 313.116 167.253 313.256 167.127C313.825 166.646 314.741 166.802 315.409 167.108L315.985 167.372L314.88 159.302L314.191 159.396L315.13 166.261C314.746 166.119 314.332 166.074 313.926 166.133C313.52 166.191 313.135 166.35 312.807 166.596C312.586 166.789 312.412 167.03 312.3 167.301C312.188 167.573 312.14 167.866 312.16 168.159C312.18 168.571 312.29 168.974 312.482 169.339C312.675 169.704 312.945 170.023 313.273 170.272C314.375 171.078 315.807 171.118 316.957 171.15Z" fill="#2F2E41"/>
<path d="M307.034 159.988H310.782V160.684H307.034V159.988Z" fill="#2F2E41"/>
<path d="M318.863 159.988H322.611V160.684H318.863V159.988Z" fill="#2F2E41"/>
<path d="M331.426 159.13C329.978 156.95 327.43 156.025 324.917 155.8C322.089 155.547 319.356 156.093 316.595 156.623C313.556 157.206 310.34 157.752 307.278 157.014C305.923 156.701 304.657 156.084 303.576 155.21C302.494 154.336 301.625 153.228 301.034 151.969C299.913 149.513 299.672 146.746 300.35 144.133C301.15 141.358 302.774 138.891 305.008 137.061C309.415 133.291 315.378 131.597 321.114 131.756C326.828 131.904 332.351 133.846 336.9 137.308C341.456 140.896 344.663 145.922 345.996 151.567C347.39 157.165 346.936 163.065 344.701 168.384C343.446 171.297 341.631 173.922 340.23 176.762C338.926 179.405 337.922 182.479 338.733 185.427C339.09 186.743 339.775 187.946 340.725 188.923C341.674 189.901 342.856 190.621 344.16 191.016C345.354 191.329 346.618 191.246 347.761 190.779C348.904 190.313 349.864 189.487 350.498 188.428C351.81 186.358 351.841 183.648 349.871 181.977C349.375 181.549 348.796 181.226 348.171 181.028C347.546 180.831 346.887 180.762 346.234 180.828C345.582 180.893 344.949 181.09 344.375 181.407C343.802 181.724 343.298 182.155 342.896 182.673C342.097 183.711 341.739 185.023 341.9 186.323C341.997 186.981 340.992 187.264 340.894 186.601C340.659 185.226 340.92 183.812 341.629 182.611C342.339 181.41 343.453 180.5 344.771 180.043C346.089 179.587 347.526 179.613 348.826 180.118C350.127 180.622 351.206 181.572 351.871 182.798C353.059 185.032 352.418 187.727 350.91 189.637C350.132 190.654 349.078 191.426 347.873 191.859C346.668 192.292 345.364 192.369 344.116 192.081C341.371 191.447 339.126 189.264 338.07 186.7C336.894 183.845 337.433 180.659 338.579 177.889C339.818 174.894 341.657 172.208 343.112 169.322C344.43 166.714 345.268 163.891 345.587 160.986C346.226 155.154 344.903 149.275 341.827 144.279C338.691 139.361 333.905 135.723 328.328 134.018C322.792 132.238 316.816 132.396 311.381 134.466C306.078 136.556 300.957 141.111 301.018 147.229C301.045 149.843 302.015 152.508 304.016 154.251C306.407 156.334 309.737 156.512 312.743 156.187C315.769 155.86 318.707 154.976 321.745 154.751C324.388 154.554 327.239 154.758 329.599 156.072C330.698 156.685 331.633 157.553 332.327 158.603C332.7 159.164 331.796 159.688 331.426 159.13L331.426 159.13Z" fill="#2F2E41"/>
<path d="M328.463 204.715C328.433 204.782 328.4 204.848 328.363 204.912C328.325 204.979 328.285 205.043 328.24 205.105L320.097 216.829L319.466 217.739L312.824 227.297L306.416 236.523L303.823 240.262C303.753 240.363 303.675 240.459 303.589 240.548C303.188 240.97 302.648 241.233 302.069 241.291H302.003V225.346L302.745 224.276L311.078 212.281L320.027 199.397C320.395 198.868 320.959 198.505 321.594 198.391C322.229 198.276 322.884 198.417 323.415 198.784L326.16 200.691L327.635 201.716C328.101 202.041 328.439 202.518 328.59 203.066C328.742 203.614 328.697 204.197 328.463 204.715Z" fill="#6C63FF"/>
<path d="M329.737 204.429L329.37 205.168L329.366 205.172L329.266 205.369L323.296 217.223C322.959 217.774 322.418 218.17 321.791 218.323C321.164 218.476 320.501 218.374 319.949 218.04L319.562 217.799L319.466 217.739L311.769 212.909C311.494 212.742 311.255 212.523 311.065 212.264C310.876 212.004 310.739 211.71 310.664 211.398C310.589 211.085 310.576 210.761 310.627 210.444C310.677 210.127 310.79 209.823 310.959 209.549L319.414 198.082C320.243 196.958 321.433 196.154 322.785 195.805C324.136 195.456 325.567 195.583 326.836 196.165C327.122 196.294 327.398 196.445 327.661 196.618C328.903 197.439 329.801 198.688 330.184 200.128C330.567 201.568 330.408 203.098 329.737 204.429Z" fill="#2F2E41"/>
<path d="M285.899 243.881V271.858C285.898 272.503 285.641 273.122 285.185 273.578C284.729 274.034 284.111 274.291 283.466 274.292H278.328C277.683 274.291 277.065 274.034 276.609 273.578C276.152 273.122 275.896 272.503 275.895 271.858V243.881H285.899Z" fill="#6C63FF"/>
<path d="M315.844 242.22V242.952C315.843 243.339 315.709 243.714 315.464 244.013C315.219 244.312 314.878 244.518 314.499 244.594C314.447 244.602 314.395 244.613 314.343 244.617C314.287 244.62 314.232 244.624 314.172 244.624H256.905C255.985 244.624 255.103 244.259 254.453 243.609C253.802 242.958 253.436 242.077 253.435 241.157V217.821C253.436 216.901 253.802 216.019 254.453 215.369C255.103 214.719 255.985 214.354 256.905 214.354H299.28C300.199 214.355 301.08 214.721 301.729 215.371C302.379 216.021 302.745 216.902 302.746 217.821V240.548H314.172C314.616 240.548 315.041 240.724 315.354 241.037C315.668 241.351 315.844 241.776 315.844 242.22Z" fill="white"/>
<path d="M315.844 242.22V242.952C315.843 243.339 315.709 243.714 315.464 244.013C315.219 244.312 314.878 244.518 314.499 244.594C314.447 244.602 314.395 244.613 314.343 244.617C314.287 244.62 314.232 244.624 314.172 244.624H256.905C255.985 244.624 255.103 244.259 254.453 243.609C253.802 242.958 253.436 242.077 253.435 241.157V217.821C253.436 216.901 253.802 216.019 254.453 215.369C255.103 214.719 255.985 214.354 256.905 214.354H299.28C300.199 214.355 301.08 214.721 301.729 215.371C302.379 216.021 302.745 216.902 302.746 217.821V240.548H314.172C314.616 240.548 315.041 240.724 315.354 241.037C315.668 241.351 315.844 241.776 315.844 242.22ZM315.101 242.952V242.22C315.101 241.973 315.003 241.737 314.829 241.563C314.655 241.389 314.419 241.291 314.172 241.291H302.003V217.821C302.002 217.099 301.714 216.407 301.204 215.896C300.694 215.386 300.002 215.098 299.28 215.097H256.905C256.182 215.097 255.489 215.384 254.978 215.895C254.467 216.406 254.179 217.098 254.178 217.821V241.157C254.179 241.88 254.467 242.572 254.978 243.083C255.489 243.594 256.182 243.881 256.905 243.881H314.172C314.419 243.881 314.655 243.783 314.829 243.609C315.003 243.434 315.101 243.198 315.101 242.952Z" fill="#3F3D56"/>
<path d="M278.091 232.347C276.513 232.347 275.234 231.068 275.234 229.489C275.234 227.911 276.513 226.632 278.091 226.632C279.668 226.632 280.948 227.911 280.948 229.489C280.948 231.068 279.668 232.347 278.091 232.347Z" fill="#6C63FF"/>
<path d="M301.991 240.942H302.734V244.286H301.991V240.942Z" fill="#3F3D56"/>
<path d="M0.457687 15.5207H198.14C198.261 15.5207 198.378 15.4725 198.463 15.3866C198.549 15.3008 198.597 15.1844 198.597 15.063C198.597 14.9416 198.549 14.8251 198.463 14.7393C198.378 14.6534 198.261 14.6052 198.14 14.6052H0.457687C0.336319 14.6052 0.21991 14.6534 0.134094 14.7393C0.0482788 14.8251 9.15527e-05 14.9416 9.15527e-05 15.063C9.15527e-05 15.1844 0.0482788 15.3008 0.134094 15.3866C0.21991 15.4725 0.336319 15.5207 0.457687 15.5207Z" fill="#CACACA"/>
<path d="M180.759 9.11238C178.473 9.11238 176.62 7.25909 176.62 4.97294C176.62 2.68679 178.473 0.833496 180.759 0.833496C183.044 0.833496 184.897 2.68679 184.897 4.97294C184.897 7.25909 183.044 9.11238 180.759 9.11238Z" fill="#3F3D56"/>
<path d="M166.463 9.11238C164.177 9.11238 162.325 7.25909 162.325 4.97294C162.325 2.68679 164.177 0.833496 166.463 0.833496C168.748 0.833496 170.601 2.68679 170.601 4.97294C170.601 7.25909 168.748 9.11238 166.463 9.11238Z" fill="#3F3D56"/>
<path d="M152.167 9.11238C149.882 9.11238 148.029 7.25909 148.029 4.97294C148.029 2.68679 149.882 0.833496 152.167 0.833496C154.453 0.833496 156.306 2.68679 156.306 4.97294C156.306 7.25909 154.453 9.11238 152.167 9.11238Z" fill="#3F3D56"/>
<path d="M160.464 86.0955C165.273 86.0955 169.974 84.6691 173.972 81.9966C177.971 79.3242 181.087 75.5257 182.927 71.0815C184.768 66.6373 185.249 61.7471 184.311 57.0292C183.373 52.3112 181.057 47.9775 177.657 44.5761C174.257 41.1747 169.924 38.8582 165.208 37.9198C160.491 36.9813 155.602 37.4629 151.16 39.3037C146.717 41.1446 142.919 44.2619 140.248 48.2615C137.576 52.2612 136.15 56.9635 136.15 61.7738C136.157 68.2221 138.721 74.4041 143.279 78.9638C147.837 83.5234 154.018 86.0882 160.464 86.0955ZM160.464 38.3679C165.092 38.3679 169.616 39.7406 173.464 42.3125C177.312 44.8844 180.311 48.5399 182.082 52.8168C183.853 57.0937 184.316 61.7999 183.414 66.3402C182.511 70.8806 180.282 75.0512 177.01 78.3246C173.737 81.598 169.568 83.8272 165.029 84.7303C160.49 85.6334 155.785 85.1699 151.51 83.3983C147.234 81.6268 143.58 78.6267 141.008 74.7776C138.437 70.9285 137.065 66.4031 137.065 61.7739C137.072 55.5684 139.54 49.6191 143.926 45.2311C148.313 40.8432 154.26 38.375 160.464 38.3679Z" fill="#CACACA"/>
<path d="M161.819 208.04C155.574 208.04 150.512 202.976 150.512 196.73C150.512 190.483 155.574 185.419 161.819 185.419C168.063 185.419 173.125 190.483 173.125 196.73C173.125 202.976 168.063 208.04 161.819 208.04Z" fill="#E4E4E4"/>
<path d="M168.1 200.922L168.111 200.499C167.325 200.477 166.632 200.428 166.111 200.047C165.964 199.933 165.843 199.789 165.756 199.623C165.669 199.458 165.619 199.276 165.608 199.09C165.599 198.976 165.616 198.862 165.659 198.756C165.701 198.65 165.767 198.555 165.852 198.478C166.049 198.359 166.274 198.295 166.504 198.293C166.734 198.291 166.96 198.351 167.159 198.467L167.509 198.627L166.838 193.726L166.42 193.784L166.99 197.953C166.757 197.866 166.505 197.839 166.259 197.875C166.012 197.91 165.779 198.007 165.579 198.156C165.445 198.273 165.34 198.42 165.271 198.584C165.203 198.749 165.174 198.927 165.186 199.105C165.198 199.355 165.265 199.6 165.382 199.822C165.499 200.043 165.663 200.237 165.862 200.388C166.531 200.878 167.401 200.902 168.1 200.922Z" fill="#2F2E41"/>
<path d="M162.074 194.143H164.35V194.566H162.074V194.143Z" fill="#2F2E41"/>
<path d="M169.257 194.143H171.533V194.566H169.257V194.143Z" fill="#2F2E41"/>
<path d="M163.521 189.425C166.249 191.298 170.438 190.265 171.675 187.101C171.976 186.331 172.111 185.506 172.07 184.68C172.028 183.854 171.812 183.047 171.434 182.311C170.982 181.541 170.367 180.878 169.631 180.372C168.896 179.865 168.059 179.525 167.178 179.377C164.839 178.892 162.42 179.543 160.282 180.489C160.205 180.529 160.117 180.545 160.031 180.534C159.944 180.522 159.864 180.485 159.799 180.427C157.757 178.798 154.789 179.505 152.695 180.644C150.431 181.916 148.515 183.728 147.12 185.92C145.697 188.093 144.807 190.571 144.525 193.153C144.266 195.944 144.722 198.755 145.849 201.32C146.976 203.886 148.737 206.123 150.967 207.82C151.372 208.123 150.976 208.815 150.565 208.507C148.314 206.843 146.506 204.65 145.303 202.121C144.099 199.593 143.537 196.807 143.665 194.009C143.793 191.212 144.608 188.489 146.038 186.081C147.467 183.673 149.468 181.654 151.862 180.203C154.374 178.692 157.875 177.88 160.362 179.864L159.88 179.801C162.019 178.855 164.362 178.188 166.719 178.498C168.721 178.761 170.688 179.722 171.835 181.432C172.34 182.217 172.67 183.1 172.806 184.023C172.941 184.947 172.877 185.888 172.619 186.785C172.368 187.671 171.914 188.487 171.293 189.167C170.673 189.848 169.902 190.375 169.043 190.707C168.081 191.092 167.04 191.239 166.008 191.135C164.977 191.032 163.986 190.681 163.119 190.113C162.699 189.824 163.097 189.134 163.521 189.425V189.425Z" fill="#2F2E41"/>
<path d="M161.028 76.5966C154.864 76.5966 149.867 71.5981 149.867 65.4321C149.867 59.2661 154.864 54.2676 161.028 54.2676C167.192 54.2676 172.189 59.2661 172.189 65.4321C172.189 71.5981 167.192 76.5966 161.028 76.5966Z" fill="#E4E4E4"/>
<path d="M163.662 70.1187C164.386 70.0986 165.286 70.0735 165.98 69.5666C166.187 69.4095 166.356 69.2091 166.477 68.9794C166.598 68.7498 166.668 68.4965 166.68 68.2372C166.693 68.053 166.663 67.8683 166.592 67.6977C166.521 67.527 166.412 67.375 166.273 67.2536C166.067 67.0993 165.824 66.9992 165.569 66.9624C165.314 66.9257 165.054 66.9534 164.812 67.0431L165.402 62.725L164.969 62.6655L164.274 67.7421L164.636 67.5759C164.842 67.4559 165.077 67.3937 165.315 67.3958C165.554 67.3979 165.787 67.4643 165.991 67.5879C166.079 67.6671 166.147 67.7654 166.191 67.8754C166.235 67.9853 166.252 68.1039 166.243 68.2218C166.232 68.4148 166.18 68.6032 166.09 68.7742C166 68.9453 165.875 69.0949 165.722 69.213C165.182 69.6074 164.464 69.6583 163.65 69.6811L163.662 70.1187Z" fill="#2F2E41"/>
<path d="M167.547 63.0974H169.904V63.5352H167.547V63.0974Z" fill="#2F2E41"/>
<path d="M160.106 63.0974H162.463V63.5352H160.106V63.0974Z" fill="#2F2E41"/>
<path d="M159.993 57.1792C161.349 58.9531 163.501 60.1431 165.776 59.8613C166.832 59.7528 167.826 59.3132 168.617 58.6052C169.408 57.8972 169.955 56.9573 170.179 55.9197C170.375 54.8972 170.322 53.8426 170.025 52.8448C169.728 51.847 169.196 50.9352 168.473 50.1863C166.939 48.5728 164.744 47.7049 162.572 47.4073C160.518 47.1656 158.436 47.3605 156.462 47.9792C154.488 48.598 152.667 49.6267 151.119 50.9979C149.556 52.3424 148.309 54.0148 147.466 55.8961C146.653 57.7635 146.266 59.7883 146.333 61.8237C146.387 63.8482 146.851 65.8406 147.697 67.6806C148.542 69.5205 149.752 71.1698 151.253 72.5287C151.631 72.859 152.026 73.1685 152.437 73.456C152.783 73.6992 153.112 73.1301 152.768 72.8889C151.239 71.7714 149.95 70.3564 148.981 68.7288C148.011 67.1011 147.38 65.2944 147.126 63.4169C146.84 61.5355 146.967 59.6145 147.498 57.7872C148.03 55.9598 148.952 54.27 150.201 52.8348C151.462 51.3962 152.998 50.2234 154.717 49.385C156.437 48.5466 158.306 48.0594 160.216 47.9518C164.056 47.7843 168.856 49.4994 169.574 53.7758C169.897 55.6926 169.18 57.7073 167.424 58.6669C166.495 59.1348 165.447 59.3159 164.414 59.1873C163.382 59.0587 162.41 58.6262 161.624 57.9446C161.228 57.621 160.871 57.2529 160.559 56.8477C160.306 56.5164 159.736 56.8432 159.993 57.1791V57.1792Z" fill="#2F2E41"/>
<path d="M160.464 150.254C165.273 150.254 169.974 148.828 173.972 146.155C177.971 143.483 181.087 139.684 182.927 135.24C184.768 130.796 185.249 125.906 184.311 121.188C183.373 116.47 181.057 112.136 177.657 108.735C174.257 105.333 169.924 103.017 165.208 102.078C160.491 101.14 155.602 101.621 151.16 103.462C146.717 105.303 142.919 108.42 140.248 112.42C137.576 116.42 136.15 121.122 136.15 125.932C136.157 132.381 138.721 138.563 143.279 143.122C147.837 147.682 154.018 150.247 160.464 150.254ZM160.464 102.526C165.092 102.526 169.616 103.899 173.464 106.471C177.312 109.043 180.311 112.698 182.082 116.975C183.853 121.252 184.316 125.958 183.414 130.499C182.511 135.039 180.282 139.21 177.01 142.483C173.737 145.756 169.568 147.986 165.029 148.889C160.49 149.792 155.785 149.328 151.51 147.557C147.234 145.785 143.58 142.785 141.008 138.936C138.437 135.087 137.065 130.562 137.065 125.932C137.072 119.727 139.54 113.778 143.926 109.39C148.313 105.002 154.26 102.533 160.464 102.526V102.526Z" fill="#CACACA"/>
<path d="M160.464 218.715C165.273 218.715 169.974 217.289 173.972 214.617C177.971 211.944 181.087 208.146 182.927 203.701C184.768 199.257 185.249 194.367 184.311 189.649C183.373 184.931 181.057 180.597 177.657 177.196C174.256 173.794 169.924 171.478 165.208 170.54C160.491 169.601 155.602 170.083 151.159 171.924C146.717 173.765 142.919 176.882 140.247 180.882C137.576 184.881 136.15 189.584 136.15 194.394C136.157 200.842 138.721 207.024 143.279 211.584C147.838 216.143 154.018 218.708 160.464 218.715ZM160.464 170.988C165.092 170.988 169.616 172.36 173.464 174.932C177.312 177.504 180.311 181.16 182.082 185.437C183.853 189.713 184.316 194.42 183.414 198.96C182.511 203.5 180.282 207.671 177.01 210.944C173.737 214.218 169.568 216.447 165.029 217.35C160.49 218.253 155.785 217.79 151.51 216.018C147.234 214.247 143.58 211.247 141.009 207.398C138.437 203.549 137.065 199.023 137.065 194.394C137.072 188.188 139.54 182.239 143.926 177.851C148.313 173.463 154.26 170.995 160.464 170.988Z" fill="#CACACA"/>
<path d="M162.119 139.807C155.742 139.807 150.572 134.636 150.572 128.256C150.572 121.877 155.742 116.706 162.119 116.706C168.496 116.706 173.666 121.877 173.666 128.256C173.666 134.636 168.496 139.807 162.119 139.807Z" fill="#E4E4E4"/>
<path d="M165.962 133.105C166.71 133.085 167.642 133.059 168.36 132.534C168.573 132.372 168.749 132.164 168.874 131.927C168.999 131.689 169.071 131.427 169.084 131.159C169.097 130.968 169.066 130.777 168.993 130.601C168.92 130.424 168.807 130.267 168.663 130.141C168.449 129.982 168.199 129.878 167.934 129.84C167.67 129.802 167.401 129.831 167.151 129.923L167.762 125.456L167.313 125.395L166.595 130.647L166.97 130.475C167.183 130.35 167.425 130.286 167.672 130.288C167.918 130.291 168.16 130.359 168.371 130.487C168.462 130.569 168.532 130.671 168.578 130.784C168.623 130.898 168.641 131.021 168.632 131.143C168.621 131.343 168.567 131.537 168.474 131.714C168.381 131.891 168.251 132.046 168.092 132.168C167.534 132.576 166.791 132.629 165.949 132.653L165.962 133.105Z" fill="#2F2E41"/>
<path d="M169.981 125.841H172.419V126.294H169.981V125.841Z" fill="#2F2E41"/>
<path d="M162.283 125.841H164.721V126.294H162.283V125.841Z" fill="#2F2E41"/>
<path d="M161.538 140.167L153.551 137.066C152.245 136.559 150.932 136.068 149.632 135.543C149.076 135.349 148.563 135.047 148.124 134.654C147.742 134.249 147.481 133.745 147.372 133.198C147.155 131.996 147.085 130.771 147.165 129.552C147.18 128.244 147.288 126.939 147.487 125.647C147.836 123.218 148.655 120.881 149.898 118.766C152.138 115.09 155.997 112.324 160.436 112.545C162.522 112.618 164.518 113.411 166.085 114.791C166.244 114.981 166.423 115.154 166.618 115.307C166.754 115.358 166.902 115.368 167.043 115.336C167.229 115.324 167.416 115.315 167.602 115.308C168.25 115.281 168.899 115.308 169.542 115.39C170.713 115.516 171.824 115.978 172.741 116.719C173.142 117.038 173.476 117.433 173.725 117.881C173.973 118.33 174.131 118.823 174.189 119.332C174.22 119.805 174.141 120.279 173.96 120.717C173.779 121.154 173.5 121.545 173.144 121.858C172.191 122.661 170.832 122.379 169.689 122.318L165.501 122.096L163.38 121.984C162.943 121.96 162.944 122.64 163.38 122.663L169.019 122.962C169.932 123.05 170.849 123.087 171.766 123.073C172.462 123.042 173.128 122.774 173.652 122.314C174.131 121.874 174.488 121.317 174.688 120.698C174.888 120.078 174.924 119.418 174.793 118.781C174.619 118.096 174.303 117.455 173.866 116.899C173.429 116.344 172.88 115.887 172.255 115.557C170.606 114.626 168.635 114.537 166.79 114.674L167.03 114.774C164.942 112.532 161.743 111.586 158.741 111.917C155.571 112.267 152.751 114.036 150.725 116.455C148.466 119.152 147.235 122.515 146.757 125.974C146.508 127.841 146.426 129.727 146.512 131.609C146.508 132.438 146.65 133.263 146.931 134.043C147.252 134.803 147.831 135.425 148.567 135.798C149.41 136.205 150.277 136.561 151.163 136.865L154.106 138.007L159.886 140.251L161.357 140.822C161.765 140.981 161.941 140.324 161.538 140.167V140.167Z" fill="#2F2E41"/>
<path d="M152.489 113.568C152.489 112.874 152.283 112.195 151.898 111.618C151.512 111.04 150.964 110.59 150.323 110.325C149.682 110.059 148.976 109.989 148.295 110.125C147.614 110.26 146.989 110.595 146.498 111.086C146.008 111.576 145.673 112.202 145.538 112.883C145.403 113.564 145.472 114.27 145.738 114.911C146.003 115.553 146.453 116.101 147.03 116.487C147.607 116.872 148.286 117.078 148.98 117.078C149.91 117.077 150.802 116.707 151.46 116.049C152.118 115.391 152.488 114.499 152.489 113.568ZM151.81 113.568C151.81 114.128 151.644 114.675 151.333 115.141C151.022 115.606 150.58 115.969 150.063 116.183C149.546 116.398 148.977 116.454 148.428 116.344C147.879 116.235 147.374 115.966 146.979 115.57C146.583 115.174 146.313 114.669 146.204 114.12C146.095 113.571 146.151 113.002 146.365 112.484C146.579 111.967 146.942 111.525 147.408 111.214C147.873 110.903 148.42 110.737 148.98 110.737C149.73 110.738 150.45 111.036 150.98 111.567C151.511 112.098 151.809 112.817 151.81 113.568Z" fill="#2F2E41"/>
<path d="M18.0404 71.9825H97.9493C98.9475 71.9825 99.9049 71.5859 100.611 70.8798C101.317 70.1738 101.713 69.2161 101.713 68.2176C101.713 67.2191 101.317 66.2614 100.611 65.5554C99.9049 64.8493 98.9475 64.4526 97.9493 64.4526H18.0404C17.5462 64.4526 17.0567 64.55 16.6001 64.7392C16.1434 64.9284 15.7285 65.2058 15.379 65.5554C15.0295 65.905 14.7523 66.32 14.5631 66.7768C14.374 67.2336 14.2766 67.7232 14.2766 68.2176C14.2766 68.712 14.374 69.2016 14.5631 69.6584C14.7523 70.1152 15.0295 70.5302 15.379 70.8798C15.7285 71.2294 16.1434 71.5067 16.6001 71.696C17.0567 71.8852 17.5462 71.9825 18.0404 71.9825Z" fill="#E4E4E4"/>
<path d="M43.8082 59.0949H97.9493C98.9475 59.0949 99.9049 58.6982 100.611 57.9921C101.317 57.2861 101.713 56.3284 101.713 55.3299C101.713 54.3314 101.317 53.3737 100.611 52.6677C99.9049 51.9616 98.9475 51.5649 97.9493 51.5649H43.8082C43.3139 51.5649 42.8245 51.6623 42.3678 51.8515C41.9112 52.0407 41.4962 52.3181 41.1467 52.6677C40.7972 53.0173 40.52 53.4323 40.3309 53.8891C40.1417 54.3459 40.0443 54.8355 40.0443 55.3299C40.0443 55.8243 40.1417 56.3139 40.3309 56.7707C40.52 57.2275 40.7972 57.6425 41.1467 57.9921C41.4962 58.3417 41.9112 58.6191 42.3678 58.8083C42.8245 58.9975 43.3139 59.0949 43.8082 59.0949Z" fill="#E4E4E4"/>
<path d="M18.0404 136.141H97.9493C98.9475 136.141 99.9049 135.744 100.611 135.038C101.317 134.332 101.713 133.375 101.713 132.376C101.713 131.378 101.317 130.42 100.611 129.714C99.9049 129.008 98.9475 128.611 97.9493 128.611H18.0404C17.0422 128.611 16.0849 129.008 15.379 129.714C14.6732 130.42 14.2766 131.378 14.2766 132.376C14.2766 133.375 14.6732 134.332 15.379 135.038C16.0849 135.744 17.0422 136.141 18.0404 136.141Z" fill="#E4E4E4"/>
<path d="M43.8082 123.253H97.9493C98.9468 123.252 99.9031 122.855 100.608 122.149C101.313 121.443 101.709 120.486 101.709 119.488C101.709 118.491 101.313 117.534 100.608 116.828C99.9031 116.122 98.9468 115.724 97.9493 115.723H43.8082C42.8099 115.723 41.8526 116.12 41.1467 116.826C40.4409 117.532 40.0444 118.49 40.0444 119.488C40.0444 120.487 40.4409 121.445 41.1467 122.151C41.8526 122.857 42.8099 123.253 43.8082 123.253Z" fill="#E4E4E4"/>
<path d="M18.0404 204.603H97.9493C98.9475 204.603 99.9049 204.206 100.611 203.5C101.317 202.794 101.713 201.836 101.713 200.838C101.713 199.839 101.317 198.882 100.611 198.175C99.9049 197.469 98.9475 197.073 97.9493 197.073H18.0404C17.0422 197.073 16.0849 197.469 15.379 198.175C14.6732 198.882 14.2766 199.839 14.2766 200.838C14.2766 201.836 14.6732 202.794 15.379 203.5C16.0849 204.206 17.0422 204.603 18.0404 204.603Z" fill="#E4E4E4"/>
<path d="M43.8082 191.715H97.9493C98.9475 191.715 99.9049 191.318 100.611 190.612C101.317 189.906 101.713 188.949 101.713 187.95C101.713 186.952 101.317 185.994 100.611 185.288C99.9049 184.582 98.9475 184.185 97.9493 184.185H43.8082C42.8099 184.185 41.8526 184.582 41.1467 185.288C40.4409 185.994 40.0443 186.952 40.0443 187.95C40.0443 188.949 40.4409 189.906 41.1467 190.612C41.8526 191.318 42.8099 191.715 43.8082 191.715Z" fill="#E4E4E4"/>
<path d="M223.198 287.833H397.542C397.664 287.833 397.78 287.785 397.866 287.699C397.952 287.614 398 287.497 398 287.376C398 287.254 397.952 287.138 397.866 287.052C397.78 286.966 397.664 286.918 397.542 286.918H223.198C223.076 286.918 222.96 286.966 222.874 287.052C222.788 287.138 222.74 287.254 222.74 287.376C222.74 287.497 222.788 287.614 222.874 287.699C222.96 287.785 223.076 287.833 223.198 287.833Z" fill="#3F3D56"/>
</g>
<defs>
<clipPath id="clip0_189_36">
<rect width="398" height="287" fill="white" transform="matrix(-1 0 0 1 398 0.833496)"/>
</clipPath>
</defs>
</svg>
