<svg width="36" height="50" viewBox="0 0 36 50" fill="none" xmlns="http://www.w3.org/2000/svg">
<path d="M3.22373 45.9841L0 9.82617H35.4232L32.1961 45.9784L17.6899 50L3.22373 45.9841Z" fill="#264DE4"/>
<path d="M29.4333 43.6763L32.1912 12.7826H17.7117V46.9261L29.4333 43.6763Z" fill="#2965F1"/>
<path d="M7.39038 26.1931L7.78784 30.6277H17.7117V26.1931H7.39038Z" fill="#EBEBEB"/>
<path d="M6.99468 21.652H17.7115V17.2173H17.6961H6.59155L6.99468 21.652Z" fill="#EBEBEB"/>
<path d="M17.6911 42.3297L17.7115 42.3241V37.7102L17.6921 37.7154L12.7532 36.3818L12.4375 32.845H10.0376H7.98584L8.60713 39.808L17.6911 42.3297Z" fill="#EBEBEB"/>
<path d="M8.33667 0H13.7078V2.24609H10.5828V4.49219H13.7078V6.73828H8.33667V0Z" fill="white"/>
<path d="M14.782 0H20.1531V1.95312H17.0281V2.34375H20.1531V6.83594H14.782V4.78516H17.907V4.39453H14.782V0Z" fill="white"/>
<path d="M21.2273 0H26.5984V1.95312H23.4734V2.34375H26.5984V6.83594H21.2273V4.78516H24.3523V4.39453H21.2273V0Z" fill="white"/>
<path d="M28.8051 17.2173H17.6963V21.652H23.9451L23.5416 26.1931H17.6963V30.6276H23.157L22.6423 36.379L17.6963 37.714V42.3276L26.7875 39.808L26.8542 39.0588L27.8963 27.3839L28.0045 26.1931L28.8051 17.2173Z" fill="white"/>
</svg>
