<svg width="70" height="41" viewBox="0 0 70 41" fill="none" xmlns="http://www.w3.org/2000/svg">
<path d="M70 39.8977C68.9812 40.2867 67.8566 40.2858 66.8384 39.8953C65.8202 39.5048 64.9788 38.7516 64.4729 37.7779L54.4104 23.7312L52.9521 21.7675L41.2767 37.7956C40.8012 38.7284 40.0055 39.4546 39.0381 39.8382C38.0708 40.2218 36.9982 40.2367 36.0209 39.88L51.065 19.5063L37.0709 1.1023C38.0771 0.736269 39.1775 0.731417 40.1869 1.08856C41.1963 1.44571 42.0529 2.14304 42.6125 3.06313L53.0425 17.2835L63.5308 3.12201C64.01 2.20574 64.8059 1.49914 65.7674 1.13654C66.7289 0.773938 67.7889 0.780614 68.7458 1.1553L63.315 8.43036L55.9592 18.0961C55.7549 18.28 55.5914 18.5055 55.4795 18.7576C55.3676 19.0098 55.3097 19.283 55.3097 19.5593C55.3097 19.8357 55.3676 20.1089 55.4795 20.361C55.5914 20.6132 55.7549 20.8387 55.9592 21.0226L69.9708 39.9006L70 39.8977ZM0.00586832 19.2531L1.23087 13.144C4.5967 1.06403 18.3167 -3.96167 27.755 3.51653C33.2821 7.9004 34.6617 14.1067 34.3904 21.1021H3.25503C2.75045 33.5942 11.6813 41.1372 23.1 37.2833C24.9511 36.6107 26.608 35.4851 27.9223 34.0073C29.2366 32.5296 30.1672 30.7458 30.6309 28.8158C31.2346 26.855 32.2292 26.5194 34.055 27.0846C33.7508 29.4764 32.9132 31.7674 31.6052 33.7853C30.2973 35.8032 28.5531 37.4955 26.5038 38.7347C23.1187 40.6038 19.2349 41.3446 15.4077 40.8512C11.5804 40.3579 8.00569 38.6556 5.19462 35.9878C2.41512 32.8299 0.735257 28.8408 0.411285 24.6292C0.411285 23.9373 0.177952 23.2896 0.0204516 22.6684C0.00625341 21.531 -0.000552291 20.3936 3.49891e-05 19.2561L0.00586832 19.2531ZM3.29295 18.4111H31.4504C31.2754 9.35483 25.6142 2.93064 18.0629 2.87175C9.65711 2.75399 3.64295 9.03686 3.27253 18.3699L3.29295 18.4111Z" fill="#C4C4C4"/>
</svg>
