<svg width="64" height="64" viewBox="0 0 64 64" fill="none" xmlns="http://www.w3.org/2000/svg">
<path d="M15.648 21.6H20.256L12.56 33.904V44H8.656V33.904L0.96 21.6H5.568L10.608 29.648L15.648 21.6ZM23.5138 44V21.6H31.5138C32.7298 21.6 33.8284 21.904 34.8098 22.512C35.8018 23.12 36.5858 23.936 37.1618 24.96C37.7378 25.984 38.0258 27.1093 38.0258 28.336C38.0258 29.5947 37.7271 30.736 37.1298 31.76C36.5431 32.7733 35.7538 33.584 34.7618 34.192C33.7698 34.7893 32.6871 35.088 31.5138 35.088H27.4178V44H23.5138ZM27.4178 31.184H31.0978C31.6524 31.184 32.1591 31.0453 32.6178 30.768C33.0764 30.4907 33.4391 30.1173 33.7058 29.648C33.9831 29.1787 34.1218 28.656 34.1218 28.08C34.1218 27.4933 33.9831 26.9653 33.7058 26.496C33.4391 26.0267 33.0764 25.6533 32.6178 25.376C32.1591 25.0987 31.6524 24.96 31.0978 24.96H27.4178V31.184Z" fill="#6C7983"/>
<path d="M45.09 44.68C44.07 43.71 43.245 42.63 42.615 41.44C41.985 40.25 41.525 38.975 41.235 37.615C40.945 36.245 40.8 34.82 40.8 33.34C40.8 32.56 40.86 31.73 40.98 30.85C41.1 29.96 41.28 29.075 41.52 28.195C41.76 27.305 42.05 26.46 42.39 25.66C42.74 24.86 43.14 24.145 43.59 23.515C44.04 22.875 44.54 22.37 45.09 22H47.61C47.12 22.44 46.665 22.98 46.245 23.62C45.825 24.25 45.44 24.955 45.09 25.735C44.74 26.505 44.435 27.32 44.175 28.18C43.915 29.04 43.71 29.91 43.56 30.79C43.42 31.66 43.34 32.51 43.32 33.34C43.35 34.91 43.55 36.39 43.92 37.78C44.3 39.17 44.805 40.445 45.435 41.605C46.075 42.765 46.8 43.79 47.61 44.68H45.09ZM51.6074 44.68C52.4174 43.79 53.1374 42.765 53.7674 41.605C54.3974 40.445 54.9024 39.17 55.2824 37.78C55.6624 36.39 55.8674 34.91 55.8974 33.34C55.8774 32.51 55.7924 31.66 55.6424 30.79C55.5024 29.91 55.3024 29.04 55.0424 28.18C54.7824 27.32 54.4774 26.505 54.1274 25.735C53.7774 24.955 53.3924 24.25 52.9724 23.62C52.5524 22.98 52.0974 22.44 51.6074 22H54.1274C54.6774 22.37 55.1724 22.875 55.6124 23.515C56.0624 24.145 56.4624 24.86 56.8124 25.66C57.1624 26.46 57.4574 27.305 57.6974 28.195C57.9374 29.075 58.1174 29.96 58.2374 30.85C58.3574 31.73 58.4174 32.56 58.4174 33.34C58.4174 34.82 58.2724 36.245 57.9824 37.615C57.6924 38.975 57.2324 40.25 56.6024 41.44C55.9724 42.63 55.1474 43.71 54.1274 44.68H51.6074Z" fill="#6C7983"/>
</svg>
