<svg width="34" height="50" viewBox="0 0 34 50" fill="none" xmlns="http://www.w3.org/2000/svg">
<path d="M8.33334 50.0001C10.5435 50.0001 12.6631 49.1221 14.2259 47.5593C15.7887 45.9965 16.6667 43.8769 16.6667 41.6667V33.3334H8.33334C6.1232 33.3334 4.00358 34.2113 2.44078 35.7742C0.877974 37.337 0 39.4566 0 41.6667C0 43.8769 0.877974 45.9965 2.44078 47.5593C4.00358 49.1221 6.1232 50.0001 8.33334 50.0001Z" fill="#0ACF83"/>
<path d="M0 25.0001C0 22.7899 0.877974 20.6703 2.44078 19.1075C4.00358 17.5447 6.1232 16.6667 8.33334 16.6667H16.6667V33.3334H8.33334C6.1232 33.3334 4.00358 32.4555 2.44078 30.8926C0.877974 29.3298 0 27.2102 0 25.0001Z" fill="#A259FF"/>
<path d="M0 8.33334C-6.74136e-07 6.12433 0.87708 4.0057 2.43848 2.44308C3.99987 0.880462 6.11782 0.00172579 8.32683 0L16.6602 0V16.6667H8.33334C6.1232 16.6667 4.00358 15.7887 2.44078 14.2259C0.877974 12.6631 0 10.5435 0 8.33334Z" fill="#F24E1E"/>
<path d="M16.6672 0H25.0006C27.2107 0 29.3303 0.877974 30.8931 2.44078C32.4559 4.00358 33.3339 6.1232 33.3339 8.33334C33.3339 10.5435 32.4559 12.6631 30.8931 14.2259C29.3303 15.7887 27.2107 16.6667 25.0006 16.6667H16.6672V0Z" fill="#FF7262"/>
<path d="M33.3339 25.0001C33.3339 27.2102 32.4559 29.3298 30.8931 30.8926C29.3303 32.4555 27.2107 33.3334 25.0006 33.3334C22.7904 33.3334 20.6708 32.4555 19.108 30.8926C17.5452 29.3298 16.6672 27.2102 16.6672 25.0001C16.6672 22.7899 17.5452 20.6703 19.108 19.1075C20.6708 17.5447 22.7904 16.6667 25.0006 16.6667C27.2107 16.6667 29.3303 17.5447 30.8931 19.1075C32.4559 20.6703 33.3339 22.7899 33.3339 25.0001Z" fill="#1ABCFE"/>
</svg>
