<svg width="50" height="50" viewBox="0 0 50 50" fill="none" xmlns="http://www.w3.org/2000/svg">
<g clip-path="url(#clip0_197_80)">
<path d="M49.0562 22.7735L27.2265 0.943801C26.9276 0.644744 26.5727 0.40751 26.1821 0.245653C25.7915 0.0837965 25.3728 0.000488281 24.95 0.000488281C24.5271 0.000488281 24.1084 0.0837965 23.7178 0.245653C23.3272 0.40751 22.9723 0.644744 22.6734 0.943801L18.1421 5.47505L23.8921 11.2251C25.2296 10.7563 26.7609 11.0766 27.8265 12.1422C28.3338 12.6504 28.6879 13.291 28.8484 13.9909C29.009 14.6907 28.9694 15.4216 28.7343 16.1001L34.2765 21.6422C35.6171 21.1797 37.164 21.4782 38.2343 22.5516C38.5901 22.9075 38.8723 23.33 39.0649 23.795C39.2574 24.26 39.3564 24.7583 39.3564 25.2615C39.3563 25.7648 39.2571 26.2631 39.0644 26.728C38.8718 27.1929 38.5895 27.6153 38.2335 27.9711C37.8776 28.3269 37.4551 28.6092 36.9902 28.8017C36.5252 28.9942 36.0269 29.0932 35.5236 29.0932C35.0204 29.0931 34.5221 28.9939 34.0571 28.8013C33.5922 28.6086 33.1698 28.3263 32.814 27.9704C31.689 26.8454 31.4109 25.1891 31.9796 23.8032L26.8109 18.6344V32.236C27.1861 32.4217 27.529 32.6665 27.8265 32.961C28.1823 33.3168 28.4646 33.7392 28.6571 34.2041C28.8497 34.6689 28.9488 35.1672 28.9488 35.6704C28.9488 36.1735 28.8497 36.6718 28.6571 37.1367C28.4646 37.6015 28.1823 38.0239 27.8265 38.3797C27.4707 38.7355 27.0483 39.0178 26.5834 39.2103C26.1186 39.4029 25.6203 39.502 25.1171 39.502C24.614 39.502 24.1157 39.4029 23.6508 39.2103C23.186 39.0178 22.7636 38.7355 22.4078 38.3797C22.0515 38.0242 21.7689 37.6019 21.5761 37.1369C21.3833 36.672 21.284 36.1737 21.284 35.6704C21.284 35.1671 21.3833 34.6687 21.5761 34.2038C21.7689 33.7389 22.0515 33.3166 22.4078 32.961C22.7781 32.5922 23.189 32.3125 23.6625 32.125V18.3969C23.2062 18.2094 22.7781 17.9329 22.4078 17.561C21.8698 17.0236 21.504 16.3382 21.357 15.5922C21.2101 14.8461 21.2887 14.0732 21.5828 13.3719L15.9109 7.70318L0.942142 22.6563C0.64285 22.9552 0.405419 23.3102 0.243424 23.701C0.0814283 24.0918 -0.00195312 24.5106 -0.00195312 24.9336C-0.00195312 25.3567 0.0814283 25.7755 0.243424 26.1663C0.405419 26.557 0.64285 26.9121 0.942142 27.211L22.7734 49.0391C23.0723 49.3382 23.4272 49.5754 23.8178 49.7373C24.2084 49.8991 24.6271 49.9824 25.05 49.9824C25.4728 49.9824 25.8915 49.8991 26.2821 49.7373C26.6727 49.5754 27.0276 49.3382 27.3265 49.0391L49.0562 27.3438C49.3555 27.0449 49.5929 26.6899 49.7549 26.2991C49.9169 25.9083 50.0003 25.4895 50.0003 25.0665C50.0003 24.6434 49.9169 24.2246 49.7549 23.8338C49.5929 23.4431 49.3555 23.0881 49.0562 22.7891" fill="#F03C2E"/>
</g>
<defs>
<clipPath id="clip0_197_80">
<rect width="50" height="50" fill="white"/>
</clipPath>
</defs>
</svg>
