<svg width="169" height="188" viewBox="0 0 169 188" fill="none" xmlns="http://www.w3.org/2000/svg">
<path d="M16.928 42.8109C12.7544 62.8676 12.7817 90.2005 35.5017 100.287C47.747 105.723 60.9616 97.1503 71.0779 90.9766C72.3425 90.2049 86.9111 79.1313 88.3854 81.4721C92.0889 87.3522 89.9174 98.9583 90.5847 105.503C91.7424 116.855 93.412 136.461 106.097 141.246C120.037 146.504 137.098 138.06 150.287 134.057C154.397 132.809 159.442 130.119 162.787 133.677" stroke="#F8F8F8" stroke-width="3" stroke-linecap="round"/>
<path d="M164.05 126.99C164.993 130.757 164.023 129.714 166.739 136.616C166.94 137.396 165.173 136.539 164.934 136.467C162.66 135.781 160.367 136.303 158.334 137.379" stroke="#F8F8F8" stroke-width="3" stroke-linecap="round"/>
</svg>
