<svg width="36" height="50" viewBox="0 0 36 50" fill="none" xmlns="http://www.w3.org/2000/svg">
<path d="M3.22375 45.9843L0 9.82642H35.4231L32.1962 45.9786L17.6899 50L3.22375 45.9843Z" fill="#E44D26"/>
<path d="M17.7117 46.9262L29.4331 43.6764L32.1911 12.7832H17.7117V46.9262Z" fill="#F16529"/>
<path d="M17.7116 26.1936H11.8433L11.4384 21.652H17.7116V17.2174H6.5918L6.69761 18.4074L7.78783 30.6278H17.7116V26.1936ZM17.7116 37.7102L17.6919 37.7154L12.7535 36.3815L12.4377 32.8451H7.98583L8.60709 39.8081L17.6911 42.33L17.7116 42.324V37.7102Z" fill="#EBEBEB"/>
<path d="M3.2959 0H5.54927V2.22692H7.61106V0H9.86484V6.74249H7.61106V4.48471H5.54968V6.74249H3.2959V0ZM12.8281 2.23614H10.844V0H17.0667V2.23614H15.0818V6.74249H12.8281V2.23614ZM18.0543 0H20.4038L21.8496 2.36921L23.2937 0H25.6445V6.74249H23.3995V3.40051L21.8496 5.79778H21.8103L20.2592 3.40051V6.74249H18.0539V0H18.0543ZM26.7664 0H29.0205V4.51397H32.1898V6.7429H26.7664V0Z" fill="white"/>
<path d="M17.6968 26.1936V30.6278H23.1575L22.6428 36.3791L17.6968 37.7142V42.3276L26.788 39.8081L26.8546 39.0586L27.8967 27.3841L28.0049 26.1936H26.8097H17.6968ZM17.6968 17.2174V21.652H28.4085L28.4971 20.6552L28.6995 18.4074L28.8057 17.2174H17.6968Z" fill="white"/>
</svg>
