<svg width="176" height="50" viewBox="0 0 176 50" fill="none" xmlns="http://www.w3.org/2000/svg">
<path fill-rule="evenodd" clip-rule="evenodd" d="M163.579 20.6776C163.422 20.7091 163.263 21.0574 163.263 21.2472C163.231 22.5141 163.2 25.8707 163.2 28.1505C163.2 28.214 163.295 28.3406 163.39 28.3406C163.865 28.3721 165.004 28.4037 165.986 28.4037C167.348 28.4037 168.139 28.214 168.583 28.0242C169.723 27.4539 170.261 26.2189 170.261 24.857C170.261 21.7859 168.108 20.6141 164.909 20.6141C164.688 20.5825 164.055 20.5825 163.579 20.6776ZM171.75 34.8321C171.75 31.6972 169.438 29.9554 165.258 29.9554C165.068 29.9554 163.738 29.9238 163.421 29.987C163.326 30.0189 163.2 30.0824 163.2 30.1774C163.2 32.4253 163.168 36.0039 163.263 37.3971C163.326 37.9986 163.77 38.8537 164.308 39.1069C164.878 39.4237 166.176 39.4868 167.063 39.4868C169.564 39.4868 171.75 38.0937 171.75 34.8321ZM157.12 18.9361C157.437 18.9361 158.386 19.0308 160.825 19.0308C163.136 19.0308 164.973 18.9677 167.221 18.9677C169.976 18.9677 173.776 19.9491 173.776 24.0657C173.776 26.0923 172.351 27.7075 170.483 28.4991C170.388 28.5307 170.388 28.5938 170.483 28.6254C173.142 29.2907 175.486 30.9371 175.486 34.0401C175.486 37.0804 173.586 39.0119 170.831 40.2153C169.153 40.9434 167.063 41.1967 164.941 41.1967C163.326 41.1967 158.988 41.0069 156.582 41.0704C156.329 40.975 156.803 39.8351 157.025 39.6453C157.595 39.6134 158.038 39.5819 158.64 39.3918C159.495 39.1704 159.59 38.9169 159.716 37.6188C159.78 36.5104 159.78 32.5835 159.78 29.7972C159.78 25.9657 159.812 23.3692 159.78 22.1026C159.748 21.1213 159.4 20.8042 158.703 20.6141C158.165 20.5194 157.278 20.3924 156.55 20.2977C156.391 20.1392 156.93 19.0624 157.12 18.9361ZM138.849 38.632C139.609 39.2332 141.097 39.4865 142.427 39.4865C144.137 39.4865 145.847 39.1704 147.494 37.6815C149.172 36.1621 150.343 33.8188 150.343 30.0824C150.343 26.5038 148.982 23.5905 146.195 21.881C144.612 20.8989 142.585 20.4878 140.242 20.4878C139.546 20.4878 138.881 20.5194 138.469 20.7091C138.374 20.7726 138.152 21.0574 138.152 21.2156C138.089 21.8491 138.089 26.7254 138.089 29.5755C138.089 32.5204 138.089 36.637 138.152 37.1119C138.152 37.5872 138.374 38.3153 138.849 38.632H138.849ZM131.66 18.9358C132.262 18.9358 134.574 19.0308 135.682 19.0308C137.677 19.0308 139.102 18.9361 142.87 18.9361C146.037 18.9361 148.697 19.7909 150.597 21.4057C152.908 23.4007 154.112 26.1558 154.112 29.5121C154.112 34.2937 151.927 37.0488 149.742 38.632C147.557 40.2469 144.707 41.1967 140.654 41.1967C138.501 41.1967 134.796 41.1335 131.724 41.1016H131.692C131.534 40.8168 131.946 39.7085 132.199 39.6769C133.022 39.5819 133.244 39.5499 133.656 39.3921C134.321 39.1385 134.447 38.7902 134.543 37.6188C134.637 35.4336 134.606 32.8055 134.606 29.8288C134.606 27.7075 134.637 23.5589 134.574 22.2289C134.479 21.1209 134.004 20.8358 133.054 20.6457C132.579 20.551 131.946 20.424 131.059 20.3293C130.932 20.1073 131.502 19.1255 131.66 18.9358Z" fill="#8E714E"/>
<path fill-rule="evenodd" clip-rule="evenodd" d="M93.3452 39.8666C92.5535 39.7715 91.9836 39.6453 91.287 39.3285C91.192 39.2651 91.0334 38.9487 91.0334 38.8217C90.9703 37.7134 90.9703 34.5469 90.9703 32.4256C90.9703 30.7154 90.6855 29.2272 89.957 28.1823C89.1019 26.9786 87.8673 26.2823 86.2837 26.2823C84.8905 26.2823 83.0221 27.2322 81.4705 28.5622C81.4389 28.5937 81.1856 28.8158 81.2172 28.4671C81.2172 28.1188 81.2807 27.4223 81.3123 26.947C81.3442 26.5037 81.0906 26.2823 81.0906 26.2823C80.0773 26.7888 77.2275 27.4538 76.1823 27.5485C75.4226 27.7074 75.2325 28.4356 76.0245 28.6888H76.056C76.9105 28.942 77.4808 29.2272 77.9238 29.5123C78.2405 29.7656 78.2089 30.1139 78.2089 30.399C78.2405 32.7735 78.2405 36.4153 78.1458 38.4103C78.1142 39.2019 77.8925 39.4867 77.3222 39.6134L77.3857 39.5818C76.9424 39.6768 76.5941 39.7715 76.0557 39.835C75.8656 40.0251 75.8656 41.0384 76.0557 41.2601C76.404 41.2601 78.2405 41.165 79.7609 41.165C81.8507 41.165 82.9274 41.2601 83.4655 41.2601C83.6871 41.0068 83.7506 40.0567 83.624 39.835C83.0221 39.8034 82.5788 39.7403 82.1674 39.6134C81.5974 39.4864 81.4389 39.2019 81.407 38.5369C81.3442 36.8583 81.3442 33.3119 81.3442 30.9055C81.3442 30.2405 81.5339 29.9238 81.7237 29.7337C82.4522 29.1006 83.624 28.6572 84.6689 28.6572C85.6822 28.6572 86.3468 28.9739 86.8536 29.3857C87.5502 29.9553 87.7719 30.7789 87.8669 31.3804C88.0251 32.742 87.962 35.4336 87.962 37.7769C87.962 39.0434 87.8669 39.3601 87.3924 39.5183C87.1704 39.6134 86.6004 39.7403 85.9354 39.8031C85.7137 40.0251 85.7772 41.0068 85.9354 41.2285C86.8536 41.2285 87.9304 41.1335 89.5137 41.1335C91.4768 41.1335 92.7436 41.2285 93.2505 41.2285C93.4083 41.0384 93.4718 40.1202 93.3452 39.8666ZM102.117 27.7709C100.439 27.7709 99.3934 29.069 99.3934 31.0952C99.3934 33.1537 100.312 35.5286 102.908 35.5286C103.351 35.5286 104.175 35.3385 104.555 34.8952C105.156 34.3256 105.568 33.1853 105.568 31.9819C105.568 29.3538 104.27 27.7709 102.117 27.7709ZM101.895 41.7666C101.262 41.7666 100.818 41.9567 100.533 42.1152C99.2033 42.9696 98.6017 43.7931 98.6017 44.7752C98.6017 45.6931 98.95 46.4212 99.7101 47.0547C100.628 47.8463 101.895 48.2265 103.51 48.2265C106.74 48.2265 108.165 46.4847 108.165 44.7752C108.165 43.5715 107.563 42.7798 106.328 42.3369C105.442 41.9567 103.827 41.7666 101.895 41.7666ZM102.117 49.9999C100.185 49.9999 98.7915 49.5881 97.5884 48.6698C96.4166 47.7832 95.9101 46.4532 95.9101 45.5349C95.9101 45.2817 95.9736 44.5848 96.5436 43.9517C96.8915 43.5715 97.6519 42.8433 99.4568 41.6084C99.52 41.5768 99.5515 41.5452 99.5515 41.4814C99.5515 41.4183 99.4881 41.3548 99.4249 41.3236C97.9367 40.7536 97.4934 39.835 97.3664 39.3285V39.2651C97.3352 39.075 97.2717 38.8852 97.5569 38.6951C97.7785 38.5369 98.0953 38.3468 98.4432 38.1255C98.9816 37.8084 99.5515 37.4601 99.8998 37.175C99.9633 37.1119 99.9633 37.0487 99.9633 36.9852C99.9633 36.9218 99.8998 36.8583 99.8364 36.8271C97.6204 36.0986 96.512 34.4518 96.512 31.9819C96.512 30.3671 97.2401 28.9105 98.5382 27.9922C99.4249 27.2956 101.642 26.4405 103.098 26.4405H103.193C104.681 26.4721 105.505 26.7888 106.676 27.2006C107.31 27.4223 107.911 27.517 108.735 27.517C109.97 27.517 110.508 27.1371 110.951 26.6941C110.983 26.7573 111.046 26.9158 111.078 27.3272C111.11 27.739 110.983 28.3405 110.666 28.7838C110.413 29.1321 109.843 29.3857 109.273 29.3857H109.115C108.545 29.3222 108.291 29.2587 108.291 29.2587L108.165 29.3222C108.133 29.3857 108.165 29.4488 108.196 29.5439L108.228 29.6074C108.291 29.8922 108.418 30.7469 108.418 30.969C108.418 33.5655 107.373 34.7051 106.265 35.5602C105.188 36.3518 103.953 36.8583 102.56 36.9852C102.528 36.9852 102.402 36.9852 102.117 37.0168C101.958 37.0168 101.737 37.0487 101.705 37.0487H101.673C101.42 37.1119 100.787 37.4286 100.787 37.9666C100.787 38.4415 101.072 39.0118 102.433 39.1069C102.718 39.1384 103.003 39.1384 103.32 39.1704C105.125 39.2966 107.373 39.4552 108.418 39.8034C109.875 40.3415 110.793 41.6399 110.793 43.1916C110.793 45.5353 109.115 47.72 106.328 49.0813C104.967 49.6831 103.605 49.9999 102.117 49.9999ZM120.166 27.9291C119.501 27.9291 118.899 28.0869 118.456 28.4036C117.221 29.1637 116.588 30.6838 116.588 32.9002C116.588 37.0487 118.677 39.962 121.654 39.962C122.541 39.962 123.237 39.7084 123.839 39.2019C124.757 38.4415 125.232 36.9218 125.232 34.8001C125.232 30.6838 123.174 27.9287 120.166 27.9287L120.166 27.9291ZM120.736 41.4817C115.353 41.4817 113.421 37.5236 113.421 33.8187C113.421 31.2222 114.466 29.2272 116.556 27.8021C118.044 26.8839 119.818 26.3774 121.401 26.3774C125.517 26.3774 128.399 29.3222 128.399 33.5655C128.399 36.4469 127.259 38.7267 125.074 40.1202C124.029 40.8167 122.224 41.4817 120.736 41.4817H120.736ZM64.3079 27.9287C63.6429 27.9287 63.0414 28.0869 62.5977 28.4036C61.3631 29.1637 60.7297 30.6838 60.7297 32.9002C60.7297 37.0487 62.8194 39.962 65.7961 39.962C66.6828 39.962 67.3794 39.7084 67.9813 39.2019C68.8992 38.4415 69.3744 36.9218 69.3744 34.8001C69.3744 30.6838 67.3478 27.9287 64.3079 27.9287ZM64.8779 41.4817C59.4947 41.4817 57.5632 37.5236 57.5632 33.8187C57.5632 31.2222 58.608 29.2272 60.6978 27.8021C62.1863 26.8839 63.9597 26.3774 65.5429 26.3774C69.6596 26.3774 72.5409 29.3222 72.5409 33.5655C72.5409 36.4469 71.401 38.7267 69.2159 40.1202C68.2026 40.8167 66.3977 41.4817 64.8779 41.4817ZM28.6842 41.165C28.6207 41.0703 28.5572 40.7852 28.5891 40.4369C28.5891 40.1833 28.6526 40.0251 28.6842 39.962C29.3492 39.8666 29.6974 39.7715 30.0773 39.6768C30.7107 39.5183 30.964 39.1704 30.9955 38.3787C31.0909 36.4788 31.0909 32.8686 31.059 30.3671V30.3036C31.059 30.0188 31.059 29.6702 30.7107 29.4169C30.2039 29.1006 29.6024 28.8158 28.8108 28.5934C28.526 28.499 28.3359 28.3405 28.3674 28.1507C28.3674 27.9606 28.5575 27.739 28.9693 27.6755C30.0142 27.5805 32.737 26.9158 33.8138 26.4405C33.8772 26.5037 33.9723 26.6941 33.9723 26.9474L33.9407 27.2953C33.9088 27.6439 33.8772 28.0557 33.8772 28.4671C33.8772 28.5937 34.0042 28.6888 34.1305 28.6888C34.194 28.6888 34.2574 28.6572 34.3206 28.6253C36.3472 27.0421 38.1836 26.4721 39.1335 26.4721C40.6855 26.4721 41.8889 27.2006 42.8071 28.7204C42.8703 28.8158 42.9337 28.8473 43.0288 28.8473C43.0919 28.8473 43.1866 28.8158 43.2185 28.7523C45.0869 27.3272 46.9553 26.4721 48.19 26.4721C51.1348 26.4721 52.8766 28.6572 52.8766 32.3621C52.8766 33.407 52.8766 34.7686 52.845 36.0039C52.845 37.1119 52.8134 38.1251 52.8134 38.8536C52.8134 39.0115 53.0348 39.5183 53.383 39.6134C53.8264 39.835 54.4282 39.9301 55.2199 40.0567H55.2514C55.3149 40.2784 55.1883 41.1015 55.0617 41.2601C54.8716 41.2601 54.5864 41.2601 54.2701 41.2285C53.4685 41.1867 52.666 41.1655 51.8633 41.165C49.9002 41.165 48.8869 41.1966 47.9048 41.2601C47.842 41.0068 47.8101 40.2468 47.9048 40.0567C48.4751 39.962 48.7599 39.8666 49.1085 39.7719C49.742 39.5818 49.9002 39.2966 49.9321 38.4734C49.9321 37.8719 50.0584 32.742 49.8683 31.507C49.6785 30.2405 48.7284 28.7523 46.6383 28.7523C45.8467 28.7523 44.612 29.069 43.4086 29.9869C43.3455 30.0504 43.2817 30.2086 43.2817 30.3036V30.3355C43.4086 31.0002 43.4086 31.7606 43.4086 32.9321V34.9902C43.4086 36.4153 43.3767 37.7453 43.4086 38.7582C43.4086 39.4552 43.8204 39.6133 44.1687 39.7403C44.3588 39.7715 44.4851 39.8034 44.6436 39.835C44.9284 39.8985 45.2136 39.962 45.6569 40.0567C45.7204 40.1836 45.7204 40.5951 45.6253 40.9434C45.5934 41.1335 45.5299 41.2282 45.4984 41.2601C44.4219 41.2285 43.3136 41.1966 41.6988 41.1966C41.2239 41.1966 40.4003 41.2285 39.7038 41.2285C39.1335 41.2285 38.5954 41.2601 38.279 41.2601C38.2471 41.1966 38.1836 40.9753 38.1836 40.6266C38.1836 40.3418 38.2471 40.1202 38.3106 40.0567C38.4688 40.0251 38.5954 39.9935 38.7539 39.9935C39.1335 39.9301 39.4505 39.8666 39.7669 39.8034C40.3056 39.6453 40.4954 39.3601 40.527 38.6635C40.622 37.0803 40.7171 32.5522 40.4954 31.412C40.1155 29.5755 39.0707 28.6572 37.392 28.6572C36.4106 28.6572 35.1753 29.1321 34.1624 29.8925C34.0039 30.0188 33.8772 30.3352 33.8772 30.6203V32.4887C33.8772 34.7686 33.8772 37.6187 33.9088 38.8536C33.9407 39.2331 34.067 39.6768 34.7955 39.835C34.954 39.8666 35.2072 39.9301 35.524 39.962L36.0936 40.0567C36.1574 40.2468 36.1255 41.0068 35.9989 41.2601C35.6822 41.2601 35.3023 41.2285 34.8586 41.2285C34.194 41.1966 33.3388 41.165 32.389 41.165C31.2807 41.165 30.4891 41.1966 29.8556 41.2285C29.4123 41.165 29.064 41.165 28.6842 41.165Z" fill="#442D22"/>
<path fill-rule="evenodd" clip-rule="evenodd" d="M12.0284 48.7652L10.7303 48.3215C10.7303 48.3215 10.8888 41.7037 8.51363 41.2288C6.93072 39.392 8.76755 -36.6685 14.4671 40.9753C14.4671 40.9753 12.5037 41.9566 12.1554 43.6353C11.7752 45.282 12.0284 48.7652 12.0284 48.7652Z" fill="white"/>
<path fill-rule="evenodd" clip-rule="evenodd" d="M12.0284 48.7652L10.7303 48.3215C10.7303 48.3215 10.8888 41.7037 8.51363 41.2288C6.93072 39.392 8.76755 -36.6685 14.4671 40.9753C14.4671 40.9753 12.5037 41.9566 12.1554 43.6353C11.7752 45.282 12.0284 48.7652 12.0284 48.7652Z" fill="#A6A385"/>
<path fill-rule="evenodd" clip-rule="evenodd" d="M12.725 42.3686C12.725 42.3686 24.0932 34.8953 21.4329 19.3473C18.8682 8.0432 12.82 4.33831 12.155 2.91325C11.4269 1.89996 10.73 0.126953 10.73 0.126953L11.2052 31.5703C11.2052 31.6022 10.2235 41.1967 12.7253 42.3689" fill="white"/>
<path fill-rule="evenodd" clip-rule="evenodd" d="M12.725 42.3686C12.725 42.3686 24.0932 34.8953 21.4329 19.3473C18.8682 8.0432 12.82 4.33831 12.155 2.91325C11.4269 1.89996 10.73 0.126953 10.73 0.126953L11.2052 31.5703C11.2052 31.6022 10.2235 41.1967 12.7253 42.3689" fill="#499D4A"/>
<path fill-rule="evenodd" clip-rule="evenodd" d="M10.0653 42.78C10.0653 42.78 -0.606314 35.4968 0.0271232 22.6726C0.628648 9.84812 8.16504 3.5467 9.62167 2.40679C10.5718 1.39349 10.6034 1.01329 10.6669 0C11.3319 1.42506 11.2053 21.3111 11.3 23.654C11.5848 32.6786 10.7935 41.0705 10.0653 42.78Z" fill="white"/>
<path fill-rule="evenodd" clip-rule="evenodd" d="M10.0653 42.78C10.0653 42.78 -0.606314 35.4968 0.0271232 22.6726C0.628648 9.84812 8.16504 3.5467 9.62167 2.40679C10.5718 1.39349 10.6034 1.01329 10.6669 0C11.3319 1.42506 11.2053 21.3111 11.3 23.654C11.5848 32.6786 10.7935 41.0705 10.0653 42.78Z" fill="#58AA50"/>
</svg>
