<svg width="50" height="50" viewBox="0 0 50 50" fill="none" xmlns="http://www.w3.org/2000/svg">
<path d="M41.11 17.1531C40.5913 16.9745 40.0539 16.8056 39.5005 16.6458C39.5914 16.2746 39.6749 15.9082 39.7491 15.548C40.9675 9.63377 40.1709 4.86919 37.4507 3.30049C34.8423 1.79631 30.5764 3.36466 26.2682 7.11402C25.8539 7.47456 25.4384 7.85627 25.0231 8.25633C24.7464 7.99164 24.4702 7.73586 24.1946 7.4912C19.6794 3.48213 15.1536 1.79266 12.4361 3.3659C9.83015 4.87444 9.05844 9.3536 10.1552 14.9586C10.2611 15.5 10.3849 16.0528 10.5249 16.615C9.88435 16.7968 9.26599 16.9906 8.67432 17.1968C3.38073 19.0424 0 21.9349 0 24.9352C0 28.0338 3.62921 31.1419 9.1429 33.0264C9.57802 33.1752 10.0295 33.3158 10.4948 33.4493C10.3438 34.0572 10.2124 34.653 10.1021 35.2341C9.05639 40.7418 9.87305 45.1151 12.472 46.6141C15.1565 48.1622 19.6618 46.571 24.0489 42.7362C24.3956 42.433 24.7436 42.1116 25.0922 41.7746C25.5441 42.2097 25.9952 42.6215 26.4439 43.0078C30.6933 46.6645 34.8902 48.1411 37.4868 46.6379C40.1686 45.0854 41.0402 40.3874 39.9086 34.6715C39.8222 34.235 39.7216 33.789 39.6087 33.3351C39.9251 33.2416 40.2357 33.145 40.5386 33.0446C46.2706 31.1454 50 28.0752 50 24.9352C50 21.924 46.5102 19.0121 41.11 17.1531ZM39.8668 31.0171C39.5934 31.1076 39.3129 31.1951 39.027 31.2799C38.3942 29.2766 37.5402 27.1464 36.4951 24.9456C37.4924 22.7971 38.3134 20.6942 38.9285 18.7039C39.44 18.8519 39.9364 19.008 40.4148 19.1727C45.0417 20.7655 47.864 23.1205 47.864 24.9352C47.864 26.868 44.816 29.3772 39.8668 31.0171ZM37.8132 35.0863C38.3136 37.6138 38.3851 39.899 38.0536 41.6854C37.7558 43.2906 37.157 44.3608 36.4165 44.7894C34.8407 45.7015 31.4711 44.5159 27.8369 41.3886C27.4203 41.0302 27.0007 40.6474 26.5797 40.2422C27.9886 38.7014 29.3967 36.9101 30.7709 34.9207C33.188 34.7062 35.4717 34.3556 37.5426 33.8768C37.6446 34.2883 37.7352 34.6918 37.8132 35.0863ZM17.0461 44.6318C15.5066 45.1755 14.2805 45.191 13.5393 44.7637C11.9621 43.854 11.3065 40.3426 12.2008 35.6324C12.3033 35.093 12.4252 34.5389 12.5657 33.9725C14.614 34.4254 16.8809 34.7513 19.3038 34.9478C20.6873 36.8944 22.136 38.6838 23.5959 40.2505C23.277 40.5585 22.9592 40.8516 22.6433 41.1279C20.7034 42.8236 18.7594 44.0267 17.0461 44.6318ZM9.83371 31.0053C7.39567 30.172 5.38223 29.0889 4.00212 27.9071C2.76201 26.8451 2.13589 25.7907 2.13589 24.9352C2.13589 23.1145 4.85029 20.7922 9.37741 19.2138C9.92672 19.0223 10.5017 18.8418 11.0985 18.6723C11.7241 20.7075 12.5449 22.8354 13.5354 24.9871C12.5321 27.1708 11.6997 29.3326 11.0679 31.3917C10.6425 31.2694 10.2303 31.1407 9.83371 31.0053ZM12.2514 14.5484C11.3117 9.74617 11.9358 6.12355 13.5062 5.21451C15.1789 4.2461 18.8778 5.62684 22.7764 9.08847C23.0255 9.30972 23.2757 9.5413 23.5266 9.78088C22.0739 11.3408 20.6384 13.1167 19.2672 15.0519C16.9157 15.2698 14.6647 15.62 12.5951 16.0888C12.465 15.5654 12.3497 15.0512 12.2514 14.5484ZM33.8191 19.874C33.3244 19.0195 32.8165 18.1851 32.2987 17.3735C33.894 17.5752 35.4224 17.8429 36.8578 18.1705C36.4269 19.5516 35.8898 20.9956 35.2575 22.4759C34.804 21.6149 34.3243 20.7467 33.8191 19.874ZM25.0239 11.3074C26.0091 12.3748 26.9957 13.5665 27.9662 14.8595C26.9882 14.8133 25.9982 14.7892 25 14.7892C24.0112 14.7892 23.0285 14.8127 22.0566 14.8581C23.028 13.5772 24.0232 12.3871 25.0239 11.3074ZM16.1722 19.8888C15.678 20.7458 15.2072 21.6093 14.7608 22.4743C14.1388 20.9992 13.6067 19.5486 13.172 18.1479C14.5986 17.8286 16.1198 17.5676 17.705 17.3698C17.1799 18.1888 16.6678 19.0295 16.1722 19.8888ZM17.7506 32.6529C16.1129 32.4702 14.5687 32.2226 13.1425 31.9122C13.5841 30.4865 14.128 29.0049 14.7632 27.498C15.2108 28.3624 15.6835 29.2263 16.1807 30.0851C16.6872 30.9601 17.212 31.8171 17.7506 32.6529ZM25.0829 38.7135C24.0706 37.6212 23.0608 36.413 22.0746 35.1133C23.032 35.1509 24.008 35.1701 25 35.1701C26.0191 35.1701 27.0266 35.1471 28.0182 35.103C27.0446 36.426 26.0615 37.6362 25.0829 38.7135ZM35.2779 27.4212C35.9462 28.9444 36.5096 30.4182 36.9569 31.8196C35.5072 32.1503 33.9419 32.4167 32.2928 32.6146C32.8118 31.7921 33.3242 30.9434 33.8277 30.0704C34.337 29.1872 34.8206 28.3026 35.2779 27.4212ZM31.9775 29.0033C31.1959 30.3585 30.3934 31.6522 29.5788 32.8734C28.0951 32.9794 26.5623 33.0341 25 33.0341C23.444 33.0341 21.9305 32.9858 20.473 32.8912C19.6256 31.654 18.8057 30.3565 18.0291 29.015C17.2546 27.6771 16.5419 26.328 15.8959 24.9864C16.5417 23.6417 17.2527 22.2911 18.0228 20.9556L18.0226 20.9559C18.7948 19.6169 19.6074 18.3257 20.4471 17.0963C21.9341 16.9839 23.4589 16.9252 24.9999 16.9252C26.5479 16.9252 28.0747 16.9843 29.5613 17.0977C30.3881 18.3181 31.1952 19.6052 31.9704 20.9443C32.7544 22.2985 33.4746 23.6402 34.1259 24.9561C33.4766 26.2945 32.758 27.6497 31.9775 29.0033ZM36.3837 5.15096C38.0581 6.11651 38.7092 10.0106 37.6572 15.1169C37.5901 15.4428 37.5146 15.7746 37.4325 16.111C35.3581 15.6323 33.1055 15.2761 30.7471 15.0549C29.3732 13.0984 27.9495 11.3198 26.5205 9.7799C26.9047 9.41029 27.2884 9.05785 27.6704 8.72526C31.3618 5.51283 34.8118 4.2445 36.3837 5.15096ZM25 20.4703C27.4658 20.4703 29.4648 22.4693 29.4648 24.9352C29.4648 27.401 27.4658 29.4 25 29.4C22.5342 29.4 20.5352 27.401 20.5352 24.9352C20.5352 22.4693 22.5342 20.4703 25 20.4703Z" fill="#00D8FF"/>
</svg>
