<svg width="67" height="50" viewBox="0 0 67 50" fill="none" xmlns="http://www.w3.org/2000/svg">
<path d="M57.4254 28.7088C55.0927 28.7223 53.0738 29.282 51.38 30.1159C50.7546 28.8776 50.1292 27.7967 50.025 26.9889C49.9072 26.0509 49.7644 25.4776 49.9072 24.3571C50.05 23.2366 50.7025 21.6471 50.7025 21.5168C50.69 21.399 50.5587 20.8257 49.2172 20.8132C47.8757 20.8007 46.7156 21.0738 46.5854 21.4261C46.3526 22.077 46.1652 22.7432 46.0246 23.4201C45.7901 24.6448 43.3406 28.9839 41.946 31.2645C41.4895 30.3786 41.0986 29.5968 41.0204 28.9714C40.9027 28.0333 40.7599 27.4601 40.9027 26.3396C41.0454 25.2191 41.6979 23.6296 41.6979 23.4993C41.6854 23.3815 41.5541 22.8082 40.2126 22.7957C38.8712 22.7832 37.7111 23.0563 37.5808 23.4086C37.4505 23.7609 37.3067 24.5947 37.02 25.4025C36.7459 26.2103 33.4887 33.4555 32.6423 35.3441C32.2118 36.3083 31.8345 37.0775 31.5604 37.5987C31.2862 38.1198 31.5479 37.6383 31.5218 37.6904L31.157 38.3814V38.394C30.9746 38.7202 30.7786 39.0329 30.688 39.0329C30.6233 39.0329 30.492 38.1594 30.714 36.9608C31.1966 34.4457 32.3692 30.5234 32.3557 30.3806C32.3557 30.316 32.5777 29.625 31.6 29.2727C30.6484 28.9204 30.3096 29.5072 30.2314 29.5072C30.1533 29.5072 30.0876 29.7156 30.0876 29.7156C30.0876 29.7156 31.1435 25.2983 28.0676 25.2983C26.1393 25.2983 23.4814 27.3965 22.1649 29.3112L15.5191 32.9468L15.3753 32.7905C11.6511 28.813 4.75828 25.9987 5.04492 20.6569C5.14915 18.715 5.82666 13.5941 18.2823 7.39237C28.4845 2.31108 36.6552 3.70465 38.0759 6.80554C40.0959 11.2354 33.7107 19.4697 23.1041 20.6579C19.0651 21.1144 16.9409 19.5499 16.4062 18.9642C15.8454 18.3513 15.7672 18.3252 15.5588 18.443C15.22 18.6254 15.4285 19.1726 15.5588 19.4989C15.8714 20.3202 17.1743 21.7794 19.3893 22.5091C21.3311 23.148 26.0736 23.4993 31.8074 21.2843C38.2312 18.7953 43.2479 11.89 41.7751 6.11866C40.2762 0.242082 30.5306 -1.6862 21.3175 1.58458C15.8329 3.53684 9.90211 6.58457 5.62861 10.585C0.536903 15.3275 -0.270892 19.4718 0.0668187 21.1916C1.25297 27.3287 9.70824 31.3291 13.0958 34.2872L12.6267 34.5478C10.933 35.3817 4.48311 38.7567 2.86752 42.3266C1.04347 46.3656 3.15416 49.2716 4.56128 49.6624C8.91295 50.8746 13.3688 48.6983 15.7797 45.1148C18.177 41.5313 17.8904 36.8805 16.7835 34.7563L16.7439 34.6781L18.0728 33.8964C18.9327 33.3877 19.7801 32.9187 20.5223 32.5153C20.1053 33.6493 19.8051 34.9908 19.6488 36.9451C19.4664 39.2382 20.4045 42.2088 21.6427 43.3825C22.19 43.8911 22.8414 43.9036 23.2458 43.9036C24.679 43.9036 25.3305 42.7175 26.0476 41.2978C26.9335 39.5645 27.7153 37.558 27.7153 37.558C27.7153 37.558 26.7376 42.9916 29.409 42.9916C30.3867 42.9916 31.3634 41.7273 31.8064 41.0758V41.0883C31.8064 41.0883 31.8324 41.0487 31.8845 40.9581C31.9888 40.8017 32.0409 40.71 32.0409 40.71V40.6839C32.4318 40.0064 33.3052 38.4555 34.6081 35.8893C36.2894 32.5799 37.905 28.4367 37.905 28.4367C37.905 28.4367 38.0613 29.453 38.5439 31.1207C38.8305 32.1109 39.4559 33.1928 39.9385 34.2476L39.3131 35.1075L39.3256 35.1211C38.9921 35.563 38.6488 35.9974 38.2958 36.424C36.9669 38.0135 35.3773 39.8251 35.1689 40.3462C34.9208 40.9591 34.9729 41.4146 35.4555 41.7794C35.8078 42.04 36.4332 42.0921 37.0972 42.04C38.2958 41.9618 39.1297 41.6616 39.5466 41.4792C40.2988 41.2111 41.0094 40.838 41.6573 40.3712C42.9602 39.4071 43.7555 38.0385 43.6773 36.2145C43.6377 35.2107 43.3125 34.2205 42.9081 33.2824L43.2604 32.7613C45.3189 29.7511 46.9085 26.4417 46.9085 26.4417C46.9085 26.4417 47.0648 27.458 47.5474 29.1257C47.7955 29.9731 48.2906 30.8976 48.7336 31.8096C46.8053 33.3867 45.5931 35.2107 45.1761 36.4094C44.4069 38.6243 45.0062 39.6281 46.1403 39.8626C46.6489 39.9668 47.3786 39.7323 47.9258 39.4978C48.6033 39.2758 49.4246 38.8984 50.1803 38.3377C51.4832 37.3735 52.734 36.031 52.6693 34.2205C52.6297 33.3867 52.4088 32.5653 52.1086 31.7836C53.7502 31.1061 55.8745 30.7152 58.5709 31.0404C64.3693 31.7179 65.5159 35.34 65.2939 36.8513C65.0719 38.3627 63.8607 39.1965 63.4563 39.4571C63.0519 39.7052 62.9216 39.7959 62.9612 39.9783C63.0133 40.2524 63.1957 40.2389 63.548 40.1867C64.0306 40.1086 66.5968 38.9485 66.701 36.1603C66.8573 32.5768 63.4563 28.6681 57.4244 28.7077L57.4254 28.7088ZM12.7059 43.7859C10.7902 45.884 8.09369 46.6783 6.94714 46.0008C5.70887 45.2837 6.19146 42.1963 8.55022 39.9679C9.98341 38.6128 11.8471 37.3621 13.0718 36.5928L14.2579 35.8757C14.3361 35.8236 14.3882 35.7975 14.3882 35.7975C14.48 35.7454 14.5842 35.6798 14.6884 35.6151C15.5619 38.7942 14.728 41.5824 12.708 43.7848L12.7059 43.7859ZM26.7147 34.2612C26.0497 35.8903 24.6425 40.0721 23.7962 39.8376C23.0666 39.6416 22.6236 36.4761 23.6523 33.3481C24.1735 31.7711 25.2815 29.8949 25.9329 29.1653C26.9888 27.9927 28.1353 27.6018 28.422 28.0834C28.7607 28.7088 27.1316 33.2439 26.7147 34.2612ZM38.2718 39.7854C37.9852 39.9293 37.7246 40.0335 37.6069 39.9553C37.5151 39.9032 37.7246 39.7073 37.7246 39.7073C37.7246 39.7073 39.1714 38.1563 39.7446 37.4402L40.8787 35.9935V36.1499C40.8787 38.026 39.0807 39.2768 38.2729 39.7854H38.2718ZM47.1836 37.7529C46.9752 37.5966 47.0012 37.114 47.7048 35.6026C47.9789 35.0033 48.6043 33.9996 49.6852 33.049C49.8155 33.4398 49.8937 33.8182 49.8812 34.1695C49.8676 36.5147 48.1999 37.3881 47.1836 37.7529Z" fill="#CF649A"/>
</svg>
