<svg width="84" height="50" viewBox="0 0 84 50" fill="none" xmlns="http://www.w3.org/2000/svg">
<path fill-rule="evenodd" clip-rule="evenodd" d="M20.8333 16.6667C23.6107 5.55599 30.556 0 41.6667 0C58.3333 0 60.4167 12.5 68.75 14.5833C74.306 15.9727 79.1667 13.8893 83.3333 8.33333C80.556 19.444 73.6107 25 62.5 25C45.8333 25 43.75 12.5 35.4167 10.4167C29.8607 9.02734 25 11.1107 20.8333 16.6667ZM0 41.6667C2.77734 30.556 9.72266 25 20.8333 25C37.5 25 39.5833 37.5 47.9167 39.5833C53.4727 40.9727 58.3333 38.8893 62.5 33.3333C59.7227 44.444 52.7773 50 41.6667 50C25 50 22.9167 37.5 14.5833 35.4167C9.02734 34.0273 4.16667 36.1107 0 41.6667Z" fill="url(#paint0_linear_197_87)"/>
<defs>
<linearGradient id="paint0_linear_197_87" x1="2.0708e-06" y1="-44.444" x2="83.3333" y2="94.444" gradientUnits="userSpaceOnUse">
<stop stop-color="#2383AE"/>
<stop offset="1" stop-color="#6DD7B9"/>
</linearGradient>
</defs>
</svg>
