<svg width="40" height="40" viewBox="0 0 40 40" fill="none" xmlns="http://www.w3.org/2000/svg">
<g clip-path="url(#clip0_189_193)">
<path d="M30.9294 9.39607C26.6419 9.4167 23.3831 12.2523 22.1631 16.7711C20.1162 13.6211 18.5194 10.0179 17.6038 6.97607L13.0912 6.99732L13.1537 18.9586C13.1564 19.5217 13.0481 20.0798 12.8351 20.6011C12.6221 21.1224 12.3085 21.5966 11.9122 21.9967C11.5158 22.3968 11.0446 22.7149 10.5254 22.9328C10.0061 23.1508 9.44906 23.2643 8.88594 23.267C7.74866 23.2724 6.65581 22.8258 5.84783 22.0254C5.44775 21.6291 5.12965 21.1579 4.91169 20.6386C4.69372 20.1194 4.58017 19.5623 4.5775 18.9992L4.515 7.03795L0 7.05982L0.0625 19.0217C0.08 23.9854 4.04625 27.9186 8.9 27.8936C13.7537 27.8686 17.6844 23.9023 17.6625 18.9373L17.6531 16.9061C18.5631 18.7061 19.7006 20.6186 20.9506 22.3061L18.1912 35.5211L22.8162 35.4998L24.8038 25.8986C26.6138 27.0192 28.6475 27.6861 31.0163 27.6748C35.9813 27.6529 40.025 23.573 40 18.3811C39.9775 13.4148 35.895 9.37295 30.93 9.39545L30.9294 9.39607ZM30.9937 23.0498C29.1887 23.058 27.38 22.2773 25.9075 21.0417L26.35 19.2292V19.1154C26.68 17.1942 27.6787 13.918 31.0637 13.9029C32.2599 13.9008 33.4083 14.372 34.2581 15.2138C35.1079 16.0555 35.5901 17.1993 35.5994 18.3954C35.4975 20.9911 33.3638 23.0329 30.9931 23.0436L30.9937 23.0498Z" fill="#6C7983"/>
</g>
<defs>
<clipPath id="clip0_189_193">
<rect width="40" height="40" fill="white"/>
</clipPath>
</defs>
</svg>
